<?xml version="1.0" encoding="UTF-8"?>
<svg version="1.1" xmlns="http://www.w3.org/2000/svg" width="154" height="155">
<path d="M0 0 C50.82 0 101.64 0 154 0 C154 51.15 154 102.3 154 155 C103.18 155 52.36 155 0 155 C0 103.85 0 52.7 0 0 Z " fill="#37B54A" transform="translate(0,0)"/>
<path d="M0 0 C4.95 0 9.9 0 15 0 C15.33 14.19 15.66 28.38 16 43 C17.65 41.35 19.3 39.7 21 38 C29.0160176 32.03062519 36.24144665 31.2856785 46 32 C55.78969208 33.54944767 63.88782597 38.77401486 69.875 46.625 C78.3367093 59.67678746 79.6346449 76.61546516 77.3125 91.6875 C74.63280533 104.05814526 69.40009658 113.86053142 58.8671875 121.17578125 C48.86167559 126.86228517 39.56391369 127.739381 28.296875 125.1484375 C25.24446481 124.08515717 23.20464602 123.04494166 20.6875 121.0625 C20.03136719 120.55847656 19.37523438 120.05445313 18.69921875 119.53515625 C17 118 17 118 15 115 C14.67 117.97 14.34 120.94 14 124 C9.38 124 4.76 124 0 124 C0 83.08 0 42.16 0 0 Z " fill="#FDFEFC" transform="translate(38,14)"/>
<path d="M0 0 C7.26232564 4.90605384 10.31830309 10.18782808 12.17578125 18.734375 C13.90233694 31.22883905 14.36505774 44.28148407 7.6875 55.4375 C4.03152695 60.14751367 0.47539253 63.67670009 -5.3125 65.4375 C-11.36426873 66.04621592 -17.20052815 66.38034457 -22.8125 63.875 C-31.81520278 55.09736479 -35.35756726 47.42673759 -35.60522461 34.73291016 C-35.69025833 22.17521367 -35.11062981 12.4978055 -26.046875 3.02734375 C-18.71609936 -3.69253392 -8.67048759 -4.87309915 0 0 Z " fill="#38B54B" transform="translate(87.3125,61.5625)"/>
</svg>
